# xmcd
#
# Track frame offsets:
#	150
#	16231
#	32841
#	47683
#	66994
#	81707
#	97661
#	116625
#	134570
#	153692
#	171521
#
# Disc length: 2511 seconds
#
# Revision: 2
# Processed by: cddbd v1.5.2PL0 Copyright (c) Steve Scherf et al.
# Submitted via: EasyCDDAExtractor 15.3.0.1
#
DISCID=9909cd0b
DTITLE=Olga Tañon - Una Mujer
DYEAR=2013
DGENRE=Latin
TTITLE0=Mala
TTITLE1=Una Mujer Como Yo (Featuring Maffio)
TTITLE2=A Celebrar (Olga Tañon and Elvis Crespo)
TTITLE3=De Que Me Sirve La Vida
TTITLE4=Pura Sabrosura (Olga Tañon and Johnny Ventura)
TTITLE5=Mi Corazon Lloro
TTITLE6=Que Bonita Eres (Olga Tañon and Oscar D'Leon)
TTITLE7=No Mientas Mas (Salsa)
TTITLE8=Todo Lo Que Sube Baja
TTITLE9=Fue Tanto El Tiempo (Olga Tañon and Fernando Villalona)
TTITLE10=No Mientas Mas (Balada)
EXTD=
EXTT0=
EXTT1=
EXTT2=
EXTT3=
EXTT4=
EXTT5=
EXTT6=
EXTT7=
EXTT8=
EXTT9=
EXTT10=
PLAYORDER=
